<svg width="16" height="30" fill="none" xmlns="http://www.w3.org/2000/svg"><path d="M12.303 5.943c.998 0 1.997 0 2.697-.313.4-.833.599-1.98.599-3.125-.2 0-.1-.312-.2-.417 0-.208-.3-.208-.3-.416-.3-.208-.499-.417-.699-.625-.699-.208-1.398-.313-2.197-.521-.8 0-1.898-.104-2.598.104-2.597 0-3.995 1.146-5.294 2.5 0 .104 0 .208-.1.208-.6 1.667-.1 3.75-.2 5.834.1.416.1 1.041.2 1.458-.999.312-2.198.416-3.396.52-.3.313-.2 1.146-.2 1.771.1.625.3 1.146.4 1.667.2.208.599.417.799.52.1 0 .1.105.1.105.5.313 1.498 0 2.297.104-.1 2.083.3 4.063 0 5.938 0 .312.3.416.2.833 0 1.041-.1 2.083.2 2.812-.3.521-.5 1.042-.4 1.875.1 0 .1.208.1.313-.1.52.6.208.5.729.2.52-.4.208-.4.52v.938c.5.313 1.498.208 2.297.208.9-.416 2.198-.52 2.797-1.25.5.209.9 0 1.2-.208 0-.312.299-.312.199-.73 0-.312-.2-.52-.1-.937v-3.02c-.2-2.396 0-5.104-.3-7.5.9-.104 1.898-.104 2.598-.417.4-.52.4-1.25.5-1.979.199-.208.199-.625.199-1.041.2-.209.1-.73.1-1.146-.1-.625-.2-1.354-.8-1.458-.898-.209-1.997.624-2.996.312 0-1.146-.3-2.396 0-3.542a63.58 63.58 0 002.197-.624zm-3.796 5c.1.312.3.52.4.729.099 0 .199 0 .199.104 1.199.104 2.198-.104 3.097-.313 0 1.042-.3 1.77-.5 2.604-.7 0-1.498.313-1.998.208-.3.209-.4.521-.6.73 0 .416.1.52 0 .833-.199.104-.099.625-.199.833v1.563c.1.312-.1.312-.1.52V22.4c-.1.313.1.313.1.521v3.125c.1.312-.1.833.1.937-.1.417-.4 0-.8.105-.499.104-.898.416-1.498.416.1-.416.3-.625.3-1.146 0-.416-.4-.312-.5-.52.2-.625.6-1.146.7-1.875.2-.521.7-1.354.3-1.875-.5-.104-.5.312-.8.416 0 .105 0 .209-.1.209 0 .104 0 .208-.1.208 0 .104-.2.104 0 0 0-.104 0-.208.1-.208 0-.104 0-.209.1-.209v-.312c.4-.625.7-1.25.8-2.083.2-.313.3-.73.4-1.042.199-.312.299-.937.1-1.25-.5 0-.8.313-.9.73-.3-.21.2-.417.1-.73.1-.208.2-.625.3-.833.2-.417.599-1.354 0-1.667-.4 0-.6.208-.7.521-.2.208-.4.417-.5.73-.399-.105-.099-.73-.199-1.147-.1-.52.1-.937 0-1.25-.6-.833-1.998-.104-3.196-.312-.1-.313-.2-1.042-.1-1.25.999-.104 2.497.208 3.196-.208 0-.104 0-.209.1-.209.1-.729-.3-1.041-.5-1.458.2-.833 0-2.083.1-3.125.2-.104.3-.417.5-.625.1-1.041.7-1.562.7-2.604-.3 0-.6-.104-.6.208-.3-.104-.4.521-.5.209-.1-.521.2-.625.3-1.042.6-.417 1.199-.833 1.898-1.25 1.698-.208 4.595-.417 6.094.208.1.625-.3.938-.2 1.563h-1.499c-1.098.208-1.997.729-2.996 1.042-.2.104-.3.312-.5.416 0 .417-.2.625-.3 1.042-.3 1.458-.1 2.708-.1 4.166z"/></svg>