<svg xmlns="http://www.w3.org/2000/svg">
    <symbol viewBox="0 0 20 19" id="user-list__basket-icon">
      <path
        d="M19.2271 7.23811H15.8454L12.5604 0.402108C12.3672 -9.09136e-06 11.9807 -0.100526 11.5942 0.100532C11.2077 0.301591 11.1111 0.703707 11.3043 1.10582L14.2995 7.23811H5.50723L8.50241 1.10582C8.69565 0.703707 8.50242 0.301591 8.21257 0.100532C7.82609 -0.100526 7.43962 0.10052 7.24638 0.402108L3.96133 7.23811H0.772936C0.386462 7.23811 0 7.53968 0 8.04233C0 8.44445 0.289844 8.84655 0.772936 8.84655H0.966184L1.83574 11.8624C1.64251 11.963 1.54587 12.164 1.54587 12.4656C1.54587 12.8677 1.83574 13.1693 2.22221 13.1693L3.86474 19H16.1353L17.7778 13.1693C18.1643 13.1693 18.4541 12.8677 18.4541 12.4656C18.4541 12.2645 18.3575 11.963 18.1643 11.8624L19.0338 8.84655H19.2271C19.6135 8.84655 20 8.54498 20 8.04233C20 7.53968 19.6135 7.23811 19.2271 7.23811ZM14.8792 17.3915H4.83092L3.67149 13.0688H16.1353L14.8792 17.3915ZM16.4251 11.5609H3.1884L2.41546 8.74605H17.1981L16.4251 11.5609Z" />
    </symbol>
        <symbol viewBox="0 0 18 18" id="user-list__search-icon">
      <path d="M17.6932 16.0568L14.2159 12.5795C15.2386 11.25 15.75 9.61364 15.75 7.875C15.75 3.47727 12.2727 0 7.875 0C3.47727 0 0 3.47727 0 7.875C0 12.2727 3.47727 15.75 7.875 15.75C9.61364 15.75 11.25 15.1364 12.5795 14.2159L16.0568 17.6932C16.2614 17.8977 16.4659 18 16.875 18C17.4886 18 18 17.4886 18 16.875C18 16.6705 17.8977 16.3636 17.6932 16.0568ZM2.25 7.875C2.25 4.80682 4.80682 2.25 7.875 2.25C10.9432 2.25 13.5 4.80682 13.5 7.875C13.5 10.9432 10.9432 13.5 7.875 13.5C4.80682 13.5 2.25 10.9432 2.25 7.875Z"/>
    </symbol>
    <symbol viewBox="0 0 60 60" id="categories__toys-icon">
      <path d="M0 43.9933L27.4 60V36.5436L0 20.4362V43.9933ZM51.3 12.4832V15C51.3 16.8121 47.8 18.3221 43.6 18.3221C39.3 18.3221 35.9 16.8121 35.9 15V10.8725C36.2 12.5839 39.5 13.9933 43.6 13.9933C47.9 13.9933 51.3 12.4832 51.3 10.6711C51.3 8.85907 47.8 7.349 43.6 7.349C43.3 7.349 42.9 7.349 42.6 7.349L37.6 4.42954V7.55034C37.6 9.36242 34.1 10.8725 29.9 10.8725C27.2 10.8725 24.9 10.2685 23.5 9.36242C23.3 9.16108 23.1 8.95973 22.8 8.75839C22.4 8.3557 22.2 7.95302 22.2 7.55034V4.5302L17.4 7.349C17.1 7.349 16.7 7.349 16.3 7.349C12 7.349 8.60001 8.85907 8.60001 10.6711C8.60001 12.4832 12.1 13.9933 16.3 13.9933C20.4 13.9933 23.7 12.5839 24 10.8725V15C24 16.8121 20.5 18.3221 16.3 18.3221C12 18.3221 8.60001 16.8121 8.60001 15V12.5839L2.60001 16.1074L30.1 32.2148L57.5 16.2081L51.3 12.4832ZM37.7 22.7517C37.7 24.5638 34.2 26.0738 30 26.0738C25.7 26.0738 22.3 24.5638 22.3 22.7517V18.6242C22.6 20.3356 25.9 21.745 30 21.745C34.1 21.745 37.4 20.3356 37.7 18.6242V22.7517ZM32.6 36.745V60L60 43.9933V20.7383L32.6 36.745ZM29.9 6.6443C34.2 6.6443 37.6 5.13423 37.6 3.32215C37.6 1.51007 34.1 0 29.9 0C25.6 0 22.2 1.51007 22.2 3.32215C22.2 5.13423 25.6 6.6443 29.9 6.6443Z"/>
    </symbol>
    <symbol viewBox="0 0 40 62" id="categories__interior-icon">
<g>
<path d="M15.162 37.7167C14.8627 38.7119 14.9625 39.9061 15.162 41.2994C15.6607 43.8869 16.8577 47.2705 17.556 50.9527H22.6433C23.3415 47.3701 24.5385 43.9864 25.137 41.2994C25.4363 39.9061 25.4363 38.6124 25.137 37.7167C24.8378 36.821 24.2393 36.1244 23.142 35.4277H17.157C15.96 36.1244 15.3615 36.821 15.162 37.7167Z"/>
<path d="M26.9327 57.6211H13.1671C11.8703 57.6211 10.8728 58.6163 10.8728 59.8105V61.9999H13.1671H26.9327H29.2269V59.8105C29.2269 58.6163 28.2294 57.6211 26.9327 57.6211Z"/>
<path d="M34.015 2.18943H22.3441C22.3441 0.995194 21.3466 0 20.0499 0C18.7531 0 17.7556 0.995194 17.7556 2.18943H6.08478L0 27.5668C0.798005 27.0693 1.59602 26.5717 2.59352 26.5717C3.99003 26.5717 4.78803 27.3678 5.48629 27.9649C6.18454 28.562 6.68329 28.7611 6.88279 28.7611C7.18204 28.7611 7.68079 28.4625 8.37905 27.9649C9.0773 27.4673 9.97505 26.5717 11.2718 26.5717C12.5686 26.5717 13.4663 27.3678 14.1646 27.9649C14.8628 28.4625 15.3616 28.7611 15.6608 28.7611C15.7606 28.7611 15.9601 28.6616 16.2593 28.562C16.4588 28.4625 16.7581 28.164 17.1571 27.9649C17.6559 27.5668 18.2544 26.9697 19.1521 26.7707C19.4514 26.6712 19.7506 26.6712 20.0499 26.6712C21.3466 26.6712 22.2444 27.4673 22.9426 28.0644C23.6409 28.562 24.1397 28.8606 24.4389 28.8606C24.7382 28.8606 25.2369 28.562 25.8354 28.0644C26.5337 27.4673 27.4314 26.6712 28.7282 26.6712C30.1247 26.6712 30.9227 27.4673 31.621 28.0644C31.9202 28.363 32.2194 28.562 32.5187 28.6616C32.7182 28.7611 32.9177 28.8606 33.1172 28.8606C33.4165 28.8606 33.9152 28.562 34.5137 27.9649C35.212 27.3678 36.1097 26.5717 37.4065 26.5717C38.404 26.5717 39.202 27.0693 40 27.5668L34.015 2.18943Z"/>
<path d="M23.4415 53.1426H16.5587C15.8604 53.1426 15.4614 53.6402 15.4614 54.2373C15.4614 54.8344 15.9602 55.332 16.5587 55.332H23.4415C24.1397 55.332 24.5387 54.8344 24.5387 54.2373C24.6385 53.6402 24.1397 53.1426 23.4415 53.1426Z"/>
<path d="M20.0499 28.7598C19.9501 28.7598 19.7506 28.8593 19.4514 28.9588C19.2519 29.0583 19.0524 29.2574 18.8529 29.3569V33.0391H21.1471V29.4564C20.6484 29.0583 20.2494 28.7598 20.0499 28.7598Z"/>
</g>
</symbol>
<symbol viewBox="0 0 50 26" id="slider__toggle-back">
  <path d="M50 11H7.7L15.8 2.8L13 0L0 13L13 26L15.8 23.2L7.7 15H50V11Z"/>
</symbol>
<symbol viewBox="0 0 50 26" id="slider__toggle-front">
<path d="M0 11H42.3L34.2 2.8L37 0L50 13L37 26L34.2 23.2L42.3 15H0V11Z"/>
</symbol>
<symbol viewBox="0 0 102 34" id="page-footer__logo-icon">
<path d="M19.2204 21.3813C19.1204 18.6962 18.7204 16.1105 18.7204 13.4255C18.7204 11.2376 19.1204 9.04976 18.3204 6.96135C18.3204 6.76246 18.4204 6.46411 18.4204 6.26522C18.6204 5.27074 15.1204 5.76798 14.6204 6.76246C14.3204 7.0608 14.1204 7.35914 14.2204 7.75694C14.2204 7.85638 14.3204 7.95583 14.3204 8.05528C13.6204 11.2376 12.7204 14.3205 11.7204 17.4034C11.3204 18.5967 10.8204 19.6907 10.4204 20.884C9.82041 19.7901 9.22041 18.6962 8.82041 17.5028C7.42041 14.1216 6.22041 10.6409 4.52041 7.35914C4.72041 5.86743 1.32041 5.96688 0.620408 7.35914C-0.179592 9.04976 -0.0795918 10.7404 0.220408 12.5304C0.520408 14.5194 0.620408 16.5083 0.620408 18.5967C0.620408 22.5746 1.02041 26.4531 1.02041 30.431C0.620408 30.8288 0.520408 31.326 0.920408 31.8233C1.12041 32.0222 1.32041 32.2211 1.52041 32.3205C2.52041 33.0167 5.12041 32.42 5.12041 31.0277C5.12041 26.9503 4.82041 22.873 4.72041 18.6962C4.72041 18.2984 4.72041 17.9006 4.72041 17.5028C4.82041 17.6023 4.82041 17.8012 4.92041 17.9006C5.52041 19.4918 6.22041 21.0829 7.12041 22.5746C8.02041 24.0664 8.42041 25.6575 8.92041 27.2487C8.72041 27.4476 8.62041 27.7459 8.72041 27.9448C8.72041 28.1437 8.82041 28.2432 9.02041 28.3426C9.62041 28.8399 10.8204 28.641 11.5204 28.3426C11.8204 28.2432 12.1204 28.0443 12.3204 27.9448C12.6204 27.7459 13.2204 27.2487 13.0204 26.7514C13.0204 26.652 12.9204 26.5526 12.9204 26.4531C13.4204 25.1603 13.6204 23.8675 13.9204 22.5746C14.2204 21.1824 14.7204 19.7901 15.2204 18.4973C15.3204 19.094 15.3204 19.6907 15.4204 20.3868C15.6204 22.9724 15.4204 25.4586 15.4204 27.9448C15.4204 28.7404 15.5204 29.536 15.6204 30.431C15.7204 30.7294 16.0204 32.2211 15.9204 32.3205C15.1204 32.8178 15.3204 33.4144 16.1204 33.6133C17.0204 33.8122 18.2204 33.5139 18.9204 32.9172C20.1204 31.8233 19.5204 30.1327 19.3204 28.7404C18.8204 26.3537 19.3204 23.768 19.2204 21.3813Z"/>
<path d="M27.6201 22.0776C27.5201 20.0887 26.8201 18.1992 26.8201 16.2102C26.8201 13.9229 27.0201 11.6356 26.6201 9.34833C26.5201 8.65219 22.5201 9.44778 22.7201 10.3428C23.0201 12.4312 22.9201 14.5196 22.9201 16.7075C22.9201 18.6964 23.4201 20.5859 23.6201 22.5749C23.9201 24.6633 23.5201 26.7517 23.7201 28.7406C23.8201 29.7351 24.5201 31.4257 23.8201 32.3208C23.4201 32.818 25.3201 32.6191 25.4201 32.6191C26.2201 32.5196 27.2201 32.2213 27.7201 31.6246C28.4201 30.829 27.9201 29.2379 27.8201 28.2434C27.5201 26.2544 27.7201 24.0666 27.6201 22.0776Z"/>
<path d="M43.9205 18.7956C41.8205 16.0111 38.0205 18.0001 35.3205 17.3039C33.9205 16.9061 33.9205 15.0166 33.9205 13.9227C33.9205 12.5304 33.8205 11.2376 33.6205 9.84534C33.5205 8.75142 33.6205 7.75694 34.3205 6.96136C34.4205 6.86191 35.2205 6.66302 35.1205 6.66302C35.5205 6.56357 35.8205 6.56357 36.2205 6.56357C37.7205 6.46412 40.8205 6.76247 40.2205 9.04976C39.9205 10.0442 43.8205 9.44755 44.1205 8.45308C45.3205 3.87848 36.8205 4.77351 34.4205 5.3702C32.2205 5.96688 29.8205 7.16026 29.6205 9.7459C29.5205 10.9393 29.9205 12.1326 29.9205 13.326C30.0205 14.7183 29.7205 16.1106 30.2205 17.4034C31.3205 20.3868 35.7205 18.9945 38.0205 19.094C41.8205 19.3923 40.7205 24.5636 40.7205 26.9504C40.7205 28.2432 41.9205 30.3316 40.9205 31.4255C40.3205 32.1216 38.9205 32.1216 38.1205 32.2211C37.3205 32.3205 35.9205 32.5194 35.4205 31.7238C34.4205 30.3316 35.5205 27.9448 35.3205 26.3537C35.2205 25.4586 31.2205 26.2542 31.4205 27.3481C31.7205 29.9338 30.0205 33.4145 33.8205 33.9117C36.2205 34.21 39.0205 33.7128 41.3205 33.0167C42.5205 32.6189 43.6205 32.1216 44.5205 31.2266C45.5205 30.3316 45.2205 28.9393 44.9205 27.7459C44.4205 24.6631 45.8205 21.2818 43.9205 18.7956Z"/>
<path d="M61.3201 18.5966C61.2201 14.8176 60.6201 11.1381 60.6201 7.35905C60.6201 5.37009 56.6201 6.06623 56.6201 7.65739C56.6201 11.2375 57.1201 14.8176 57.3201 18.3977C57.3201 18.4972 57.3201 18.4972 57.3201 18.5966C55.4201 18.5966 53.4201 18.7955 51.4201 18.7955C51.6201 14.2209 50.8201 9.64634 51.0201 4.9723C51.0201 4.37561 47.1201 4.87285 47.1201 5.96678C46.9201 10.4419 47.7201 14.8176 47.6201 19.2928C47.5201 21.3812 47.4201 23.569 47.3201 25.6574C47.3201 26.7514 47.5201 27.8453 47.6201 28.9392C47.7201 29.9337 48.1201 31.2265 47.8201 32.221C47.6201 33.0166 51.4201 32.5193 51.7201 31.5248C52.2201 29.7348 51.5201 27.5469 51.3201 25.7569C51.1201 24.0663 51.3201 22.2762 51.4201 20.5856C53.4201 20.4861 55.5201 20.2873 57.5201 20.5856C57.6201 21.9779 57.7201 23.3701 57.8201 24.663C57.9201 25.8563 58.0201 26.9502 58.0201 28.1436C58.0201 29.1381 58.1201 30.6298 57.8201 31.6243C57.0201 33.7127 60.9201 33.5138 61.5201 32.0221C62.2201 30.1326 62.0201 27.8453 61.9201 25.8563C61.7201 23.3701 61.3201 20.9834 61.3201 18.5966Z"/>
<path d="M78.22 22.9729C77.32 20.1884 75.82 17.8016 74.62 15.216C75.62 13.3265 76.62 11.3375 77.52 9.34855C78.32 7.55849 78.92 5.56954 80.62 4.27672C81.22 3.87892 81.22 3.38169 80.32 3.28224C79.42 3.18279 78.22 3.48113 77.52 3.97837C76.12 5.27119 75.12 6.66346 74.42 8.35407C73.52 10.4425 72.52 12.4314 71.52 14.4204C71.42 14.5198 71.42 14.7187 71.32 14.8182C70.82 15.1165 70.52 15.6138 70.72 16.111C69.92 17.7022 69.12 19.1939 68.22 20.6856C67.92 15.216 67.22 9.64689 67.02 4.17727C67.02 2.88445 63.02 3.68003 63.12 5.17174C63.32 12.0336 64.32 18.7961 64.42 25.658C64.42 25.658 64.42 25.658 64.42 25.7574C64.12 26.0558 64.22 26.2547 64.52 26.3541C64.52 28.1442 64.42 29.8348 64.32 31.6248C63.82 32.321 64.82 32.7188 65.42 32.7188H65.52C66.22 32.7188 68.12 32.4204 68.22 31.3265C68.42 29.2381 68.52 27.1497 68.42 25.0613C70.02 23.3707 71.32 21.4812 72.52 19.4922C73.32 20.9839 74.02 22.4756 74.52 24.0668C75.42 26.7519 76.82 29.3375 77.62 32.0226C78.12 33.8127 82.12 32.7188 81.52 31.0282C80.52 28.2436 79.12 25.7574 78.22 22.9729Z"/>
<path d="M101.721 18.3983C101.521 17.6027 100.321 17.6027 99.4207 17.6027C99.4207 17.3043 99.4207 16.9066 99.4207 16.6082C99.3207 13.9231 99.2207 11.238 99.0207 8.6524C98.8207 6.1662 97.4207 5.37062 95.0207 5.47007C92.6207 5.56952 89.8207 5.96731 87.5207 6.86234C84.9207 7.85682 83.4207 9.74632 82.9207 12.5309C82.4207 15.5143 83.1207 18.6966 83.3207 21.68C83.5207 25.1607 83.4207 28.6414 83.4207 32.1221C83.4207 32.7187 87.3207 32.1221 87.3207 31.1276C87.3207 28.343 87.3207 25.5585 87.3207 22.8734C87.3207 22.0778 87.2207 21.2823 87.2207 20.4867C88.6207 19.89 90.9207 20.4867 92.3207 20.5861C93.4207 20.6856 94.5207 20.3872 95.5207 20.2878C95.5207 22.5751 95.6207 24.8624 95.7207 27.1497C95.7207 28.343 96.2207 30.6303 95.3207 31.6248C94.9207 32.1221 96.8207 31.9232 96.9207 31.9232C97.7207 31.8237 98.7207 31.5254 99.2207 30.9287C100.121 29.8348 99.7207 27.1497 99.6207 25.8569C99.5207 23.9673 99.5207 22.0778 99.5207 20.1883C100.621 19.9894 101.921 19.2933 101.721 18.3983ZM87.1207 18.2988C87.0207 17.1055 86.9207 15.8126 86.8207 14.6193C86.6207 12.332 86.9207 9.05019 89.1207 7.65792C89.7207 7.26013 90.8207 7.35958 91.5207 7.26013C92.5207 7.06123 93.5207 6.86234 94.3207 7.45902C95.5207 8.25461 95.2207 11.1386 95.2207 12.332C95.2207 14.3209 95.4207 16.3099 95.5207 18.2988C94.9207 18.3983 94.4207 18.3983 93.8207 18.3983C91.5207 18.1994 89.2207 17.8016 87.1207 18.2988Z"/>
<path d="M24.2204 6.663C24.7204 6.56355 25.2204 6.4641 25.7204 6.16576C25.8204 6.06631 25.9204 5.96686 25.9204 5.96686C26.4204 5.66852 26.9204 5.17128 26.6204 4.57459C26.1204 3.48067 26.2204 2.38675 26.2204 1.19337C26.2204 0.198895 25.2204 0 24.4204 0C23.7204 0.0994477 22.2204 0.596686 22.2204 1.49172C22.2204 2.48619 22.1204 3.48067 22.3204 4.47515C22.3204 4.57459 22.2204 4.67404 22.2204 4.87294C22.1204 5.07183 22.2204 5.27073 22.3204 5.46962V5.56907C22.3204 5.66852 22.3204 5.76797 22.3204 5.86742C22.4204 6.06631 22.5204 6.26521 22.7204 6.36465C23.3204 6.663 23.8204 6.663 24.2204 6.663Z"/>
</symbol>
<symbol viewBox="0 0 23 22" id="social__link--instagram-icon">
<path d="M22.599 12.5999C22.599 10.1999 22.299 7.7999 22.299 5.4999C22.299 4.6999 22.199 3.99991 22.099 3.19991C21.999 2.89991 21.999 2.4999 21.899 2.0999C21.599 1.8999 21.699 1.4999 21.399 1.2999C20.999 1.0999 20.199 1.1999 19.699 1.0999C18.999 1.0999 18.399 0.999902 17.799 0.899902C15.899 0.799902 13.799 0.799904 11.799 0.799904C9.79901 0.799904 7.79901 0.699902 6.09901 0.399902H3.89901C3.79901 0.399902 3.79901 0.499905 3.69901 0.499905C3.09901 0.499905 2.59901 0.699904 2.09901 0.799904C1.89901 0.899904 1.69901 0.999903 1.39901 1.0999C1.29901 1.2999 0.899007 1.1999 0.799007 1.4999C0.599007 1.6999 0.999007 1.9999 0.799007 2.0999V2.9999C0.999007 3.0999 0.799009 3.5999 0.899009 3.7999V4.7999C0.899009 6.0999 0.999008 7.1999 0.999008 8.4999C1.49901 11.2999 1.39901 14.9999 1.09901 17.8999C1.29901 18.4999 1.49901 18.9999 1.59901 19.5999C1.89901 20.0999 1.89901 20.6999 2.29901 21.0999C2.79901 21.2999 3.49901 21.2999 4.19901 21.2999C4.59901 21.3999 4.89901 21.5999 5.29901 21.5999C8.09901 21.3999 10.799 21.3999 13.699 21.3999C16.399 21.5999 19.499 21.5999 21.999 21.1999C22.199 21.0999 22.099 20.6999 22.199 20.3999C22.099 19.9999 22.399 19.9999 22.399 19.5999C22.599 17.4999 22.599 15.0999 22.599 12.5999ZM9.59901 6.3999C10.399 6.1999 11.099 6.0999 11.999 6.0999C12.699 6.1999 13.299 6.3999 13.899 6.5999C13.999 6.7999 13.699 7.0999 14.099 7.2999C14.199 7.2999 14.199 7.2999 14.299 7.3999C14.699 7.3999 15.099 7.5999 15.399 7.7999C15.899 7.8999 15.899 8.29991 16.499 8.19991C16.399 8.39991 16.399 8.6999 16.399 8.9999C16.699 10.1999 16.899 11.7999 16.699 13.2999C16.499 13.4999 16.499 13.6999 16.399 13.9999C16.099 14.2999 15.899 14.7999 15.599 15.0999C15.499 15.2999 15.299 15.4999 15.099 15.5999C14.999 15.7999 14.899 16.0999 14.599 16.0999C14.299 16.2999 13.999 16.0999 13.799 15.9999C13.399 16.1999 12.899 16.2999 12.599 16.5999C11.799 16.4999 10.999 16.3999 10.199 16.2999C9.99901 16.1999 9.69901 15.9999 9.39901 15.9999C9.19901 15.7999 8.89901 15.5999 8.59901 15.4999C8.49901 15.3999 8.29901 15.3999 8.09901 15.2999C7.89901 15.2999 7.89901 15.0999 7.59901 15.0999C7.49901 14.6999 7.19901 14.4999 7.09901 13.9999C6.89901 13.6999 6.79901 13.1999 6.59901 12.7999C6.59901 11.3999 6.69901 10.0999 6.99901 8.9999C7.29901 8.3999 7.79901 7.8999 8.09901 7.2999C8.29901 7.2999 8.49901 7.1999 8.49901 6.9999C8.79901 7.0999 8.89901 6.8999 9.19901 6.8999C9.39901 6.8999 9.39901 6.5999 9.59901 6.3999ZM7.89901 3.69991C7.79901 3.39991 7.79901 2.9999 7.79901 2.5999C7.79901 2.2999 8.09901 2.2999 8.09901 2.0999C8.09901 1.9999 7.99901 1.9999 7.89901 1.9999C7.99901 1.8999 8.59901 1.8999 8.69901 1.9999C8.79901 2.4999 8.29901 2.49991 8.19901 2.69991C8.19901 2.89991 8.49901 2.6999 8.69901 2.7999C8.69901 3.6999 8.59901 4.2999 8.69901 4.9999H8.19901C8.19901 5.1999 8.39901 5.19991 8.69901 5.19991C8.59901 5.49991 8.79901 5.5999 8.79901 5.7999C8.59901 5.9999 8.09901 5.7999 7.69901 5.8999C7.69901 5.2999 7.99901 4.49991 7.89901 3.69991ZM7.19901 2.0999C7.29901 2.0999 7.29901 2.09991 7.39901 2.19991C7.59901 2.49991 7.39901 2.8999 7.29901 3.0999C7.09901 2.8999 7.29901 2.3999 7.19901 2.0999ZM7.39901 3.8999C7.29901 3.7999 7.19901 3.6999 7.19901 3.3999C7.39901 3.4999 7.39901 3.6999 7.39901 3.8999ZM7.39901 5.2999C7.29901 5.3999 7.29901 5.2999 7.29901 5.0999C7.39901 4.9999 7.39901 5.1999 7.39901 5.2999ZM7.19901 5.4999C7.39901 5.4999 7.29901 5.69991 7.39901 5.69991C7.39901 5.89991 7.09901 5.8999 6.99901 5.7999C7.09901 5.6999 7.19901 5.5999 7.19901 5.4999ZM4.89901 4.2999C4.89901 4.1999 4.89901 4.0999 4.79901 4.0999C4.69901 3.3999 4.89901 2.6999 4.79901 2.0999C5.09901 1.8999 5.59901 2.0999 5.89901 1.9999V3.0999C5.79901 3.1999 5.69901 3.19991 5.49901 3.19991C5.39901 3.49991 5.79901 3.2999 5.89901 3.4999C5.89901 4.3999 5.79901 5.2999 6.09901 5.8999C5.49901 5.7999 5.19901 5.9999 4.69901 5.9999C4.79901 5.3999 4.69901 4.5999 5.19901 4.3999C5.19901 4.2999 4.89901 4.3999 4.89901 4.2999ZM4.39901 4.2999C4.19901 4.2999 4.19901 3.79991 4.29901 3.69991C4.59901 3.69991 4.49901 4.1999 4.39901 4.2999ZM4.19901 5.2999C4.29901 4.9999 4.19901 4.9999 4.29901 4.5999C4.49901 4.5999 4.49901 5.3999 4.19901 5.2999ZM4.39901 3.19991C4.09901 3.29991 4.09901 2.8999 4.19901 2.7999C4.49901 2.7999 4.59901 3.09991 4.39901 3.19991ZM4.39901 2.0999C4.39901 2.2999 4.29901 2.2999 4.29901 2.3999C4.09901 2.3999 4.19901 2.19991 4.09901 2.19991C4.19901 2.09991 4.29901 2.0999 4.39901 2.0999ZM4.19901 5.7999C4.29901 5.7999 4.29901 6.0999 4.09901 5.9999C4.19901 5.9999 4.19901 5.8999 4.19901 5.7999ZM3.49901 2.0999C3.49901 2.3999 3.09901 2.3999 3.09901 2.0999H3.49901ZM2.49901 2.19991C2.49901 2.39991 2.19901 2.3999 2.09901 2.5999C1.89901 2.3999 2.19901 2.09991 2.49901 2.19991ZM2.09901 2.8999C2.29901 2.6999 2.59901 2.4999 2.79901 2.2999C2.79901 2.1999 2.89901 2.1999 2.89901 2.0999H3.09901C3.19901 2.4999 2.79901 2.3999 2.79901 2.5999C2.79901 2.6999 2.69901 2.6999 2.69901 2.7999C2.69901 3.0999 2.79901 3.3999 2.79901 3.7999C2.49901 3.7999 2.49901 4.0999 2.19901 3.9999C2.19901 3.5999 1.99901 3.3999 2.09901 2.8999ZM2.19901 6.19991V4.5999C2.39901 4.3999 2.59901 4.1999 2.79901 4.0999C3.09901 4.5999 2.99901 5.4999 3.29901 5.9999C2.89901 6.0999 2.49901 6.09991 2.19901 6.19991ZM20.399 17.2999C20.299 18.2999 20.199 19.2999 19.999 20.0999C17.099 20.1999 13.999 20.0999 11.099 20.2999C10.899 20.2999 10.799 20.2999 10.899 20.0999C10.599 20.0999 10.599 20.2999 10.399 20.2999C10.599 19.9999 10.799 19.3999 10.599 18.9999C9.79901 18.9999 9.79901 19.7999 9.49901 20.2999C8.79901 20.1999 8.39901 20.3999 7.69901 20.3999C7.89901 19.6999 8.39901 19.3999 8.59901 18.6999C8.19901 18.1999 7.59901 18.7999 7.39901 19.1999C7.19901 19.6999 6.79901 19.9999 6.59901 20.4999H5.59901C5.79901 19.9999 6.09901 19.5999 6.39901 19.0999C6.59901 18.5999 6.99901 18.3999 7.09901 17.6999C6.89901 17.3999 6.69901 17.6999 6.39901 17.6999C6.29901 17.8999 6.09901 17.9999 5.99901 18.1999C5.79901 18.5999 5.49901 18.8999 5.29901 19.2999C5.09901 19.4999 4.99901 19.2999 4.79901 19.4999C4.39901 19.7999 4.19901 20.1999 3.79901 20.4999C3.59901 20.3999 3.79901 20.0999 3.99901 20.0999C3.99901 19.8999 3.89901 19.5999 4.09901 19.4999C4.19901 19.0999 4.29901 18.8999 4.49901 18.5999C4.59901 17.8999 4.99901 17.3999 5.19901 16.6999C4.59901 16.7999 4.49901 17.2999 4.19901 17.6999C3.99901 18.0999 3.69901 18.4999 3.49901 18.9999C3.29901 18.8999 3.49901 18.3999 3.39901 18.1999C3.49901 17.5999 3.69901 17.0999 3.79901 16.4999C3.89901 16.2999 3.99901 15.9999 3.99901 15.6999C4.19901 15.4999 3.99901 15.0999 3.89901 14.8999C3.69901 14.8999 3.49901 14.9999 3.39901 15.1999C3.19901 15.1999 3.19901 15.6999 3.09901 15.4999C3.09901 12.8999 2.59901 10.6999 2.59901 8.0999C2.59901 7.7999 2.39901 7.6999 2.39901 7.3999C3.99901 7.3999 5.49901 7.4999 7.19901 7.5999C7.09901 7.6999 6.99901 7.8999 6.89901 7.9999C6.79901 8.0999 6.69901 8.1999 6.49901 8.2999C5.89901 9.9999 5.49901 12.2999 5.89901 14.4999C6.09901 15.0999 6.49901 15.4999 6.89901 15.8999C7.79901 16.3999 8.49901 16.9999 9.39901 17.5999C11.099 17.9999 13.199 17.9999 14.899 17.5999C15.099 17.4999 15.399 17.3999 15.599 17.1999C16.999 15.9999 18.399 14.6999 18.599 12.2999V10.8999C18.399 9.2999 17.899 7.9999 16.899 7.2999C17.199 7.0999 17.999 7.2999 18.599 7.3999C18.799 7.3999 18.999 7.3999 19.299 7.3999C19.699 7.3999 20.199 7.2999 20.699 7.3999C20.799 7.5999 20.799 7.89991 20.899 8.19991C20.799 9.89991 20.699 11.4999 20.699 13.2999C20.799 13.7999 20.799 14.2999 20.899 14.6999C20.699 15.4999 20.599 16.3999 20.399 17.2999ZM20.799 6.0999C20.199 5.9999 19.599 5.79991 18.899 5.69991C18.999 5.39991 19.699 5.6999 19.899 5.4999C20.299 5.2999 20.199 4.5999 20.199 3.9999C20.199 3.6999 20.299 3.3999 20.299 2.8999C19.899 1.8999 18.499 2.4999 17.399 2.3999C17.199 3.0999 16.899 4.1999 17.099 5.0999C17.299 5.5999 18.099 5.3999 18.599 5.5999C18.499 5.8999 17.899 5.69991 17.599 5.69991C17.299 5.59991 16.899 5.5999 16.599 5.4999C14.299 5.5999 12.299 5.49991 10.099 5.69991C10.199 4.49991 10.199 3.1999 9.99901 2.0999H13.099C12.799 2.4999 12.199 2.5999 11.799 2.8999C11.399 3.0999 10.899 3.3999 10.699 3.7999C10.899 3.8999 11.199 3.5999 11.499 3.3999C11.899 3.2999 11.999 2.9999 12.299 2.8999C12.699 2.4999 13.399 2.2999 13.999 1.9999C14.399 1.9999 14.699 1.9999 14.999 2.0999C16.299 2.0999 17.499 2.19991 18.799 2.19991C19.399 2.29991 20.299 2.2999 20.799 2.4999C20.899 2.7999 20.999 3.0999 21.099 3.3999C20.999 4.3999 20.799 5.1999 20.799 6.0999ZM14.899 2.3999C14.999 2.2999 14.899 2.2999 14.899 2.3999V2.3999ZM14.899 2.3999C14.399 2.5999 13.899 2.6999 13.499 3.0999C13.999 2.8999 14.599 2.7999 14.899 2.3999ZM15.999 2.9999C16.099 2.8999 15.999 2.8999 15.999 2.9999V2.9999ZM14.199 3.8999C14.899 3.6999 15.399 3.2999 15.899 2.9999C15.499 2.9999 15.299 3.2999 14.899 3.3999C14.799 3.5999 14.399 3.5999 14.199 3.8999ZM13.499 3.0999C13.399 3.0999 13.599 3.1999 13.499 3.0999V3.0999ZM12.899 3.69991C12.999 3.59991 12.899 3.59991 12.899 3.69991V3.69991ZM12.799 3.7999C12.899 3.7999 12.899 3.6999 12.799 3.7999C12.799 3.6999 12.799 3.6999 12.799 3.7999ZM12.699 3.7999C12.799 3.7999 12.799 3.7999 12.699 3.7999C12.699 3.6999 12.699 3.7999 12.699 3.7999ZM11.899 4.3999C12.199 4.2999 12.499 4.0999 12.699 3.7999C12.399 3.9999 12.099 4.1999 11.899 4.3999ZM14.199 5.3999C14.699 5.3999 14.899 4.9999 15.399 4.8999C15.699 4.5999 16.199 4.4999 16.399 4.0999C15.799 4.0999 15.599 4.4999 15.199 4.5999C14.899 4.9999 14.399 5.0999 14.199 5.3999ZM11.899 4.3999C11.599 4.3999 11.899 4.6999 11.899 4.3999V4.3999ZM11.299 4.7999C11.399 4.7999 11.499 4.7999 11.299 4.7999C11.399 4.6999 11.299 4.7999 11.299 4.7999ZM14.199 5.3999C13.999 5.4999 14.199 5.4999 14.199 5.3999V5.3999ZM12.999 7.19991C12.799 6.99991 12.299 6.9999 11.999 6.7999C11.299 6.7999 10.799 6.8999 10.299 6.9999C9.99901 7.1999 9.69901 7.2999 9.39901 7.4999C9.09901 7.6999 8.99901 7.8999 8.59901 7.9999C8.39901 8.1999 8.19901 8.4999 7.89901 8.5999C7.89901 8.7999 7.69901 8.8999 7.59901 8.9999C7.49901 9.09991 7.49901 9.2999 7.39901 9.3999C7.39901 9.4999 7.39901 9.69991 7.29901 9.69991C7.39901 11.1999 7.59901 12.5999 7.99901 13.8999C8.29901 14.4999 8.99901 14.6999 9.39901 15.1999C9.99901 15.4999 10.699 15.5999 11.499 15.6999C11.799 15.5999 12.099 15.5999 12.399 15.5999C13.599 15.3999 14.499 14.8999 15.199 14.1999C15.299 13.8999 15.499 13.6999 15.699 13.4999C15.399 12.7999 15.999 12.3999 16.199 11.8999C16.199 10.5999 15.999 9.3999 15.599 8.4999C15.299 7.8999 14.699 7.6999 14.199 7.3999C14.099 7.3999 13.999 7.3999 13.999 7.2999C13.799 7.1999 13.299 7.09991 12.999 7.19991ZM9.59901 11.5999C9.49901 11.4999 9.49901 11.3999 9.39901 11.1999C9.69901 11.0999 9.59901 11.3999 9.59901 11.5999ZM9.69901 11.8999C9.69901 11.7999 9.79901 11.8999 9.69901 11.8999C9.69901 12.0999 9.69901 11.9999 9.69901 11.8999ZM10.099 9.7999C10.099 9.6999 10.199 9.7999 10.099 9.7999C10.199 9.8999 10.099 9.8999 10.099 9.7999ZM11.799 7.69991C11.599 7.99991 11.799 8.2999 11.899 8.4999C11.599 8.4999 11.299 7.69991 11.799 7.69991ZM12.199 11.5999C12.099 11.5999 12.199 11.5999 12.199 11.5999C12.299 11.5999 12.199 11.6999 12.199 11.5999ZM12.899 14.4999C12.899 14.3999 12.999 14.4999 13.099 14.4999C13.099 14.5999 12.899 14.5999 12.899 14.4999ZM15.099 11.9999C14.899 11.8999 14.999 12.1999 14.699 12.1999C14.799 11.9999 14.799 11.8999 14.899 11.6999C15.099 11.6999 15.199 11.7999 15.099 11.9999ZM13.999 8.19991C14.199 8.29991 14.399 8.3999 14.599 8.5999C14.699 8.7999 14.799 8.9999 14.999 9.0999C15.099 9.8999 15.199 10.5999 15.199 11.4999C14.899 11.5999 14.799 11.7999 14.499 11.8999C13.699 11.8999 13.099 11.6999 12.599 11.3999C12.399 11.0999 12.199 10.8999 12.099 10.5999V9.4999C12.299 9.2999 12.399 9.0999 12.599 8.8999C12.799 8.7999 13.099 8.6999 13.099 8.2999C13.099 8.1999 12.999 8.1999 12.999 8.0999C13.199 8.0999 13.199 8.2999 13.399 8.2999C13.599 8.2999 13.699 8.09991 13.999 8.19991Z"
/>
</symbol>
<symbol viewBox="0 0 16 30" id="social__link--facebook-icon">
<path
d="M12.3025 5.94251C13.3014 5.94251 14.3004 5.94251 14.9996 5.63003C15.3992 4.79672 15.599 3.65093 15.599 2.50514C15.3992 2.50514 15.4991 2.19265 15.3992 2.08849C15.3992 1.88016 15.0995 1.88016 15.0995 1.67183C14.7999 1.46351 14.6001 1.25518 14.4003 1.04686C13.701 0.83853 13.0018 0.734367 12.2026 0.526042C11.4035 0.526042 10.3046 0.421877 9.60539 0.630203C7.00816 0.630203 5.60965 1.776 4.31104 3.13011C4.31104 3.23428 4.31104 3.33844 4.21114 3.33844C3.61178 5.00505 4.11125 7.0883 4.01136 9.17156C4.11125 9.58821 4.11125 10.2132 4.21114 10.6298C3.21221 10.9423 2.01349 11.0465 0.814769 11.1507C0.515089 11.4631 0.614982 12.2965 0.614982 12.9214C0.714875 13.5464 0.914664 14.0672 1.01456 14.588C1.21434 14.7964 1.61392 15.0047 1.8137 15.1089C1.9136 15.1089 1.9136 15.213 1.9136 15.213C2.41306 15.5255 3.412 15.213 4.21114 15.3172C4.11125 17.4004 4.51082 19.3795 4.21114 21.2545C4.21114 21.567 4.51083 21.6711 4.41093 22.0878C4.41093 23.1294 4.31104 24.171 4.61072 24.9002C4.31104 25.421 4.11125 25.9418 4.21114 26.7751C4.31104 26.7751 4.31104 26.9834 4.31104 27.0876C4.21115 27.6084 4.9104 27.2959 4.81051 27.8167C5.01029 28.3375 4.41093 28.025 4.41093 28.3375V29.275C4.9104 29.5875 5.90933 29.4833 6.70848 29.4833C7.60752 29.0667 8.90614 28.9625 9.5055 28.2334C10.005 28.4417 10.4045 28.2334 10.7042 28.0251C10.7042 27.7126 11.0039 27.7126 10.904 27.2959C10.904 26.9834 10.7042 26.7751 10.8041 26.3584V23.3377C10.6043 20.942 10.8041 18.2337 10.5044 15.838C11.4035 15.7338 12.4024 15.7338 13.1017 15.4213C13.5012 14.9005 13.5012 14.1714 13.6011 13.4422C13.8009 13.2339 13.8009 12.8173 13.8009 12.4006C14.0007 12.1923 13.9008 11.6715 13.9008 11.2548C13.8009 10.6298 13.701 9.90071 13.1017 9.79654C12.2026 9.58822 11.1038 10.4215 10.1049 10.109C10.1049 8.96324 9.80518 7.71328 10.1049 6.56749C10.904 6.35916 11.6033 6.15084 12.3025 5.94251ZM8.50657 10.9423C8.60646 11.2548 8.80625 11.4631 8.90614 11.6715C9.00603 11.6715 9.10592 11.6715 9.10592 11.7756C10.3046 11.8798 11.3036 11.6715 12.2026 11.4631C12.2026 12.5048 11.9029 13.2339 11.7032 14.0672C11.0039 14.0672 10.2048 14.3797 9.70528 14.2755C9.4056 14.4839 9.30571 14.7964 9.10592 15.0047C9.10592 15.4213 9.20582 15.5255 9.10592 15.838C8.90614 15.9422 9.00603 16.463 8.90614 16.6713V18.2337C9.00603 18.5462 8.80624 18.5462 8.80624 18.7546V22.4003C8.70635 22.7127 8.90614 22.7127 8.90614 22.9211V26.046C9.00603 26.3584 8.80625 26.8793 9.00603 26.9834C8.90614 27.4001 8.60646 26.9834 8.20688 27.0876C7.70742 27.1917 7.30784 27.5042 6.70848 27.5042C6.80837 27.0876 7.00816 26.8793 7.00816 26.3584C7.00816 25.9418 6.60859 26.046 6.5087 25.8376C6.70848 25.2127 7.10805 24.6918 7.20795 23.9627C7.40773 23.4419 7.90721 22.6086 7.50763 22.0878C7.00816 21.9836 7.00816 22.4003 6.70848 22.5044C6.70848 22.6086 6.70848 22.7127 6.60859 22.7127C6.60859 22.8169 6.60859 22.9211 6.5087 22.9211C6.5087 23.0252 6.30891 23.0252 6.5087 22.9211C6.5087 22.8169 6.5087 22.7127 6.60859 22.7127C6.60859 22.6086 6.60859 22.5044 6.70848 22.5044V22.1919C7.10805 21.567 7.40774 20.942 7.50763 20.1087C7.70742 19.7962 7.80731 19.3795 7.9072 19.067C8.10699 18.7546 8.20689 18.1296 8.0071 17.8171C7.50763 17.8171 7.20795 18.1296 7.10806 18.5462C6.80838 18.3379 7.30784 18.1296 7.20795 17.8171C7.30784 17.6088 7.40774 17.1921 7.50763 16.9838C7.70742 16.5671 8.10699 15.6297 7.50763 15.3172C7.10806 15.3172 6.90827 15.5255 6.80838 15.838C6.60859 16.0463 6.4088 16.2546 6.30891 16.5671C5.90934 16.463 6.20901 15.838 6.10912 15.4213C6.00923 14.9005 6.20901 14.4839 6.10912 14.1714C5.50976 13.3381 4.11125 14.0672 2.91253 13.8589C2.81264 13.5464 2.71274 12.8173 2.81264 12.6089C3.81157 12.5048 5.30998 12.8173 6.00923 12.4006C6.00923 12.2965 6.00923 12.1923 6.10912 12.1923C6.20901 11.4631 5.80944 11.1507 5.60965 10.734C5.80944 9.9007 5.60965 8.65075 5.70955 7.60912C5.90933 7.50496 6.00923 7.19247 6.20901 6.98414C6.30891 5.94251 6.90827 5.4217 6.90827 4.38007C6.60859 4.38007 6.30891 4.27591 6.30891 4.5884C6.00923 4.48423 5.90934 5.10921 5.80944 4.79672C5.70955 4.2759 6.00923 4.17174 6.10912 3.75509C6.70848 3.33844 7.30784 2.92179 8.0071 2.50514C9.70529 2.29681 12.6022 2.08848 14.1006 2.71346C14.2005 3.33844 13.8009 3.65093 13.9008 4.27591H12.4024C11.3036 4.48423 10.4045 5.00505 9.40561 5.31753C9.20582 5.4217 9.10593 5.63002 8.90614 5.73419C8.90614 6.15084 8.70635 6.35916 8.60646 6.77582C8.30678 8.2341 8.50657 9.48405 8.50657 10.9423Z"/>
</symbol>
<symbol viewBox="0 0 25 20" id="social__link--twitter-icon">
<path d="M24.225 4.3001C24.025 3.9001 23.325 4.0001 22.825 3.9001H21.725C21.825 3.5001 22.025 3.3001 22.225 2.9001C22.325 2.5001 22.525 2.2001 22.425 1.6001C22.525 1.4001 22.625 1.2001 22.725 1.0001C22.825 0.900095 22.925 0.500098 22.825 0.300098C22.725 0.100098 22.525 0.100098 22.225 0.100098C22.125 0.100098 22.025 0.200096 22.025 0.200096C21.625 0.600096 21.225 1.2001 20.725 1.6001H20.625C20.525 1.6001 20.625 1.6001 20.525 1.7001C20.425 1.8001 20.225 1.9001 20.125 1.9001C19.825 2.1001 19.625 2.3001 19.225 2.4001C18.725 2.2001 18.025 2.1001 17.325 2.0001C16.125 2.1001 15.025 2.2001 14.325 2.7001C13.425 3.0001 12.825 3.7001 12.225 4.3001C12.225 4.6001 11.925 4.7001 11.825 5.0001C11.825 5.0001 11.825 5.1001 11.725 5.1001C11.725 5.3001 11.625 5.4001 11.625 5.6001C11.625 5.7001 11.825 6.0001 11.625 6.1001C10.825 6.0001 10.125 5.5001 9.52501 5.1001C8.82501 4.7001 8.02501 4.5001 7.42501 4.0001C6.72502 3.7001 6.12501 3.2001 5.62501 2.7001C5.42501 2.4001 5.12501 2.2001 4.92501 1.8001C4.52501 1.6001 4.72501 0.900097 4.22501 0.900097C3.92501 0.900097 3.92501 1.1001 3.82501 1.3001C3.72501 1.5001 3.42501 1.5001 3.42501 1.8001C3.42501 1.8001 3.42501 1.9001 3.32501 1.9001C3.12501 3.0001 2.82501 3.9001 2.82501 5.2001C2.92501 5.6001 3.12502 5.9001 3.42501 6.2001C3.02501 6.3001 2.72501 6.4001 2.52501 6.7001C2.42501 7.8001 2.92501 8.3001 3.22501 9.0001C3.32501 9.40009 3.62501 9.7001 3.82501 10.0001C3.82501 10.2001 4.02501 10.3001 4.12501 10.4001C4.12501 10.5001 4.22501 10.5001 4.22501 10.6001C4.22501 10.7001 4.52501 10.8001 4.32501 10.8001C3.92501 10.9001 3.32501 10.9001 3.02501 11.2001C2.92501 11.5001 2.92501 12.0001 3.02501 12.3001C3.02501 12.5001 3.32501 12.6001 3.32501 12.8001C3.82501 13.2001 4.42501 13.5001 4.92501 13.9001C5.52501 14.1001 6.12501 14.2001 6.82501 14.3001C6.72501 14.6001 6.52501 14.9001 6.22501 15.0001C5.42501 15.4001 4.42501 15.5001 3.52501 15.7001C2.92501 15.7001 2.52501 15.9001 1.92501 15.9001C1.62501 16.0001 1.02501 16.0001 0.825013 16.1001C0.725013 16.2001 0.725012 16.2001 0.625012 16.3001C0.525012 16.7001 0.725013 17.0001 1.02501 17.2001C1.02501 17.5001 1.22501 17.5001 1.42501 17.6001C1.52501 17.8001 1.72501 17.9001 1.82501 18.0001C2.32501 18.5001 3.12501 18.8001 3.72501 19.1001C4.52501 19.3001 5.32501 19.5001 6.22501 19.6001C7.12501 19.7001 8.12501 19.7001 9.02501 19.8001H10.025C10.525 19.9001 11.225 19.9001 11.925 19.9001C12.025 19.8001 12.225 19.8001 12.425 19.8001C12.925 19.5001 13.625 19.4001 14.025 19.1001C14.625 18.9001 15.025 18.5001 15.625 18.2001C16.525 17.4001 17.525 16.9001 18.125 15.8001C18.325 15.6001 18.525 15.4001 18.525 15.1001C18.825 14.9001 18.925 14.6001 19.125 14.4001C19.525 14.0001 19.825 13.5001 20.125 13.0001C20.425 12.5001 20.725 11.9001 21.025 11.4001C21.025 11.0001 21.325 10.9001 21.325 10.5001C21.525 10.3001 21.525 9.8001 21.725 9.6001C21.725 9.3001 21.725 9.2001 21.825 9.0001C21.825 7.7001 21.825 6.6001 21.525 5.6001C22.125 5.4001 22.725 5.3001 23.125 5.0001C23.925 5.3001 24.425 4.9001 24.225 4.3001ZM20.825 8.3001C20.625 9.2001 20.225 9.7001 19.825 10.3001C19.925 10.7001 19.725 10.8001 19.725 11.2001C19.525 11.5001 19.425 11.9001 19.325 12.2001C19.125 12.5001 19.025 12.8001 18.825 13.1001C18.425 13.6001 18.025 14.2001 17.625 14.7001C17.225 15.3001 16.725 15.7001 16.325 16.2001C15.925 16.7001 15.425 17.1001 14.925 17.5001C14.425 17.7001 14.025 17.9001 13.625 18.2001C13.425 18.3001 13.125 18.4001 12.925 18.5001C12.725 18.6001 12.425 18.6001 12.225 18.8001C11.125 18.9001 9.92501 19.0001 8.62501 18.9001C7.62501 18.8001 6.52501 18.7001 5.62501 18.5001C4.72501 18.3001 4.12501 17.8001 3.32501 17.5001C3.52501 17.3001 3.92501 17.3001 4.32501 17.3001C4.32501 17.1001 4.72501 17.3001 4.72501 17.2001C5.02501 17.3001 5.02501 17.1001 5.22501 17.1001C5.82501 16.9001 6.42501 16.8001 6.92501 16.5001C7.22502 16.4001 7.32501 16.1001 7.62501 15.9001C7.62501 15.7001 7.72501 15.6001 7.82501 15.5001C7.82501 15.2001 8.02501 15.1001 7.92501 14.7001C8.02501 14.5001 8.22501 14.4001 8.22501 14.0001C8.12501 13.9001 8.12501 13.7001 7.92501 13.6001C7.92501 13.4001 7.52501 13.5001 7.52501 13.4001C7.22501 13.4001 7.12501 13.4001 6.92501 13.3001C6.72502 13.3001 6.42501 13.4001 6.42501 13.2001C5.62501 13.2001 5.12501 12.8001 4.52501 12.5001C4.92501 12.2001 5.52501 12.1001 5.82501 11.8001C6.32501 11.7001 6.92501 11.7001 6.92501 11.1001C6.92501 10.4001 6.12501 10.4001 5.62501 10.3001C4.82501 9.6001 4.42501 8.6001 3.82501 7.8001C4.02501 7.6001 4.42501 7.6001 4.52501 7.4001C5.02501 7.5001 5.02501 7.1001 5.22501 6.9001C5.22501 6.4001 4.92501 6.3001 4.62501 6.1001C4.32501 5.9001 4.12502 5.6001 3.92501 5.4001C3.92501 4.6001 3.92501 3.7001 4.02501 3.0001C4.12501 3.0001 4.12501 3.0001 4.12501 3.1001C4.32501 3.5001 4.72502 3.9001 4.92501 4.3001C5.42501 4.7001 5.82501 5.2001 6.52501 5.4001C7.02501 5.8001 7.62501 6.0001 8.12501 6.4001C8.72501 6.7001 9.32501 7.0001 9.82501 7.3001C10.525 7.5001 10.925 8.0001 11.825 7.9001C12.025 7.8001 12.225 7.7001 12.425 7.6001C12.725 7.1001 12.325 6.5001 12.525 6.0001C12.825 5.3001 13.325 5.0001 13.825 4.5001C14.125 4.3001 14.425 4.2001 14.625 4.0001C14.925 3.9001 15.325 3.8001 15.625 3.6001C16.025 3.6001 16.325 3.5001 16.625 3.5001H17.925C18.125 3.6001 18.425 3.6001 18.625 3.6001C18.825 3.7001 19.025 3.9001 19.325 4.0001C20.125 4.7001 20.625 5.7001 20.725 7.0001C20.725 7.3001 20.825 7.7001 20.825 8.3001ZM21.125 2.7001C21.025 3.0001 20.925 3.4001 20.525 3.5001C20.525 3.4001 20.425 3.4001 20.425 3.3001C20.425 3.1001 20.625 3.1001 20.725 3.0001C20.825 2.9001 20.925 2.7001 21.125 2.7001C21.225 2.7001 21.125 2.6001 21.125 2.7001ZM15.625 5.7001C15.825 5.8001 15.925 6.0001 16.125 6.1001C16.225 6.3001 16.425 6.4001 16.725 6.5001C16.725 6.3001 17.025 6.5001 17.125 6.3001C17.325 6.3001 17.325 6.1001 17.425 6.0001C17.425 5.5001 17.325 5.0001 17.025 4.7001C16.325 4.2001 15.325 4.7001 15.625 5.7001Z"/>
</symbol>
<symbol viewBox="0 0 27 35" id="htmlacademycopyright">
<path d="M13.6 0H13.5L0 1.4V26.1L13.5 34.1L26.9 26.1V1.4L13.6 0ZM25 12.1L13.5 5.3V5.2H13.4L13.3 5.1V5.2L1.9 12.1V3.1L13.4 1.9L25 3.1V12.1ZM13.4 6.8L24.9 13.5L20.4 16.1L13.3 11.9V13.3L19.2 16.8L18.3 17.3L13.3 14.3V15.7L17.1 18L16.3 18.5L13.3 16.7V18.1L15.2 19.2L13.4 20.3L2 13.6L13.4 6.8ZM1.9 15.1L13.3 21.9V22.9L5.4 18.2V19.6L13.4 24.4V25.5L5.4 20.8V22.2L13.4 27L21.5 22.1V16.9L24.9 14.9V24.9L13.4 31.8L1.9 25V15.1Z"/>
</symbol>
<symbol viewBox="0 0 25 24" id="tel-list__title-icon">
<g>
<path d="M17.4395 24C17.0363 24 16.7339 24 16.3306 24C11.3911 23.4074 7.7621 21.1358 5.14113 18.2717C2.52016 15.4075 0.403226 11.7532 0 6.7162C0 6.22237 0 5.82731 0 5.33349C0.100806 4.44461 0.504032 3.85202 1.10887 3.25943C1.71371 2.56808 2.72177 1.77796 3.62903 1.6792C4.33468 1.6792 5.44355 2.17302 5.84677 2.76561C6.25 3.25943 6.45161 4.34584 6.65323 5.13596C6.85484 6.02484 7.25806 7.11125 7.15726 7.90137C6.95565 9.08655 5.34274 9.58037 4.93952 10.4693C6.55242 14.1235 9.07258 16.889 12.5 18.6667C13.3065 18.1729 14.1129 16.7902 15.3226 16.7902C15.7258 16.7902 16.3306 16.9877 16.7339 17.0865C17.2379 17.1852 17.6411 17.3828 18.0444 17.5803C18.75 17.8766 20.0605 18.1729 20.4637 18.7655C20.8669 19.3581 21.1694 20.3457 21.0685 20.9383C20.7661 22.2222 18.6492 23.6049 17.4395 24Z"/>
<path d="M12.6008 1.48147C18.5484 1.48147 23.4879 6.22217 23.4879 12.1481H25C25 5.43205 19.4556 0 12.6008 0V1.48147Z"/>
<path d="M12.6008 9.18506V10.7653C13.4073 10.7653 14.0121 11.3579 14.0121 12.148H15.625C15.625 10.5678 14.3145 9.18506 12.6008 9.18506Z"/>
<path d="M12.6008 6.12356C15.9274 6.12356 18.75 8.79021 18.75 12.1482H20.3629C20.3629 8.00009 16.9355 4.64209 12.7016 4.64209V6.12356H12.6008Z"/>
</g>
</symbol>
<symbol viewBox="0 0 32 21" id="email-list__title-icon">
  <path d="M28 0H4C1.8 0 0 1.8 0 4V17C0 19.2 1.8 21 4 21H28C30.2 21 32 19.2 32 17V4C32 1.8 30.2 0 28 0ZM2 5.3L9 10.6L2 15.9V5.3ZM30 17C30 18.1 29.1 19 28 19H4C2.9 19 2 18.1 2 17L9.8 11.1L14.2 14.4C14.7 14.8 15.4 15 16 15C16.6 15 17.3 14.8 17.8 14.4L22.2 11.1L30 17ZM30 15.8L23 10.5L30 5.2V15.8ZM17.2 13.6C16.8 13.9 16.4 14 16 14C15.6 14 15.1 13.9 14.8 13.6L10.7 10.5L9.9 9.9L2 4C2 2.9 2.9 2 4 2H28C29.1 2 30 2.9 30 4L17.2 13.6Z"/>
</symbol>
<symbol viewBox="0 0 101 77" id="video-block__wrapper-button-icon">
<path d="M97.0001 18.1C97.0001 18.1 96.1001 11.1 93.2001 7.99997C89.6001 3.99997 85.5001 3.89995 83.7001 3.69995C70.4001 2.69995 50.4001 2.69995 50.4001 2.69995H50.3001C50.3001 2.69995 30.3001 2.69995 17.0001 3.69995C15.1001 3.89995 11.1001 3.99997 7.50011 7.99997C4.70011 11.1 3.7001 18.1 3.7001 18.1C3.7001 18.1 2.80011 26.3 2.80011 34.5V42.2C2.80011 50.4 3.7001 58.6 3.7001 58.6C3.7001 58.6 4.60011 65.6 7.50011 68.7C11.1001 72.7 15.9001 72.6 18.0001 73C25.6001 73.8 50.4001 74 50.4001 74C50.4001 74 70.4001 74 83.7001 73C85.6001 72.8 89.6001 72.7 93.2001 68.7C96.0001 65.6 97.0001 58.6 97.0001 58.6C97.0001 58.6 97.9001 50.4 97.9001 42.2V34.5C97.9001 26.3 97.0001 18.1 97.0001 18.1Z" fill="#63D1BB"/>
<path d="M50.3001 76.8C49.3001 76.8 25.3001 76.5 17.7001 75.8H17.6001H17.5001C17.2001 75.7 16.8001 75.7 16.4001 75.6C13.9001 75.3 9.2001 74.7 5.6001 70.6C2.2001 67 1.2001 59.8 1.1001 59C1.1001 58.7 0.100098 50.5 0.100098 42.3V34.6C0.100098 26.3 1.00011 18.2 1.00011 17.9V17.8C1.10011 17 2.20011 9.89998 5.50011 6.19998C9.50011 1.79998 14.0001 1.30001 16.2001 1.10001C16.4001 1.10001 16.6001 1.1 16.7001 1H16.8001C30.1001 0 50.1001 0 50.3001 0H50.4001C50.6001 0 70.6001 0 83.9001 1H84.0001C84.2001 1 84.3001 1.00001 84.5001 1.10001C86.7001 1.30001 91.2001 1.79998 95.2001 6.19998C98.6001 9.79998 99.6001 17 99.7001 17.8C99.7001 18.1 100.7 26.3 100.7 34.6V42.3C100.7 50.6 99.8001 58.7 99.7001 59V59.1C99.6001 59.9 98.5001 67.1 95.2001 70.7C91.2001 75.1 86.7001 75.6 84.5001 75.8C84.3001 75.8 84.1001 75.8 84.0001 75.9H83.9001C70.6001 76.8 50.5001 76.8 50.3001 76.8ZM18.4001 70.4C25.9001 71.1 49.6001 71.4 50.4001 71.4C51.1001 71.4 70.5001 71.4 83.4001 70.4C83.6001 70.4 83.8001 70.4 84.0001 70.3C85.8001 70.1 88.6001 69.8 91.2001 67C93.0001 65 94.1001 60.1 94.3001 58.4C94.4001 57.9 95.2001 50 95.2001 42.3V34.6C95.2001 26.8 94.3001 19 94.2001 18.5C93.9001 16.1 92.8001 11.7 91.1001 10C88.5001 7.1 85.7001 6.89998 83.9001 6.69998C83.7001 6.69998 83.5001 6.70001 83.3001 6.60001C70.2001 5.60001 50.5001 5.60001 50.3001 5.60001H50.2001C50.0001 5.60001 30.2001 5.60001 17.2001 6.60001C17.0001 6.60001 16.8001 6.59998 16.6001 6.69998C14.8001 6.89998 12.0001 7.2 9.40012 10C7.60012 12 6.50011 16.9 6.30011 18.6C6.20011 19.2 5.4001 27 5.4001 34.7V42.4C5.4001 50.1 6.30011 58 6.30011 58.5C6.60011 60.9 7.70012 65.3 9.40012 67C11.7001 69.6 14.7001 70 16.9001 70.3C17.5001 70.2 17.9001 70.3 18.4001 70.4Z" fill="white"/>
<path d="M38.4004 20.5V56.2L68.2004 38.4L38.4004 20.5Z" fill="white"/>
</symbol>
</svg>
